<?xml version="1.0" encoding="UTF-8"?>
<svg version="1.1" xmlns="http://www.w3.org/2000/svg" width="512" height="512">
<path d="M0 0 C5.39633044 3.41969704 9.42511621 8.33781876 11.3125 14.4375 C11.55597978 17.15541387 11.69329435 19.72147252 11.6875 22.4375 C11.68661377 23.18209473 11.68572754 23.92668945 11.68481445 24.69384766 C11.53120408 31.98449214 10.55655921 40.35798444 5.88671875 46.23046875 C3.14921841 48.32944544 0.68858942 48.37929156 -2.6875 48.4375 C-6.0545416 46.60758609 -7.35030622 45.34370828 -8.6875 41.75 C-8.6875 38.62739691 -8.322002 37.14894549 -7.25 34.3125 C-5.20990931 28.81922829 -4.99062758 23.23873667 -5.6875 17.4375 C-8.31409598 14.81090402 -10.02946593 14.79796321 -13.6875 14.4375 C-32.8072316 16.43971378 -50.51122226 30.38914729 -63.6875 43.4375 C-64.0175 44.0975 -64.3475 44.7575 -64.6875 45.4375 C-63.718125 45.355 -62.74875 45.2725 -61.75 45.1875 C-54.12295433 45.23363132 -47.84959038 49.47592643 -42.4140625 54.5 C-37.21701401 60.33198201 -35.5427923 66.76799177 -35.6875 74.4375 C-31.53137175 71.04021539 -27.98150663 67.70750859 -24.6875 63.4375 C-21.59576248 61.89163124 -19.09320448 62.14390479 -15.6875 62.4375 C-13.25 63.9375 -13.25 63.9375 -11.6875 66.4375 C-11.16003061 71.35209456 -10.976842 73.38678883 -13.77734375 77.52734375 C-14.70664136 78.49607407 -15.65663685 79.4453198 -16.625 80.375 C-17.54152344 81.31214844 -18.45804687 82.24929687 -19.40234375 83.21484375 C-21.19968672 85.04032729 -22.99467833 86.68300572 -24.99923611 88.28510571 C-29.90798913 92.43485744 -29.90798913 92.43485744 -32.2172718 98.23378944 C-32.07381944 101.51081643 -31.63194736 104.60560782 -31.05688477 107.83520508 C-30.88263474 109.0461937 -30.7083847 110.25718231 -30.52885437 111.50486755 C-30.04350865 114.81028936 -29.51459052 118.1029238 -28.96532178 121.39793229 C-28.39935633 124.86203772 -27.892548 128.33477134 -27.37962341 131.80705261 C-26.39896803 138.38635099 -25.36865652 144.95680521 -24.31878465 151.52537602 C-22.78508103 161.1349724 -21.3252747 170.75583598 -19.86661434 180.3770628 C-19.65002499 181.80498259 -19.43341424 183.23289915 -19.21678162 184.66081238 C-19.11096533 185.35892947 -19.00514905 186.05704657 -18.89612621 186.77631873 C-18.27052476 190.89235234 -17.63047155 195.00579835 -16.97685921 199.11747515 C-16.66774372 201.06651758 -16.3630784 203.01626412 -16.05848694 204.96601868 C-15.68947347 207.32792196 -15.31383985 209.68880613 -14.92977905 212.04830933 C-13.27232624 222.76808747 -11.77477683 233.77560651 -17.6875 243.4375 C-23.03700473 250.04537269 -29.10222111 256.00360001 -35.10481262 262.00871277 C-36.15162848 263.05955174 -37.19823572 264.11059858 -38.24465388 265.16183358 C-41.10329118 268.03234577 -43.96500291 270.89977514 -46.82728827 273.76664913 C-49.92045105 276.86580203 -53.01080378 279.96775515 -56.10160828 283.06925964 C-63.55391729 290.54600351 -71.01109673 298.01788017 -78.46916607 305.48887751 C-80.57663943 307.60006742 -82.68398451 309.71138529 -84.79128432 311.82274842 C-97.89044969 324.94714005 -110.99120723 338.06994008 -124.09676075 351.187953 C-127.12678257 354.22090422 -130.15678822 357.2538716 -133.18676758 360.28686523 C-133.93980212 361.04064582 -134.69283665 361.79442641 -135.46869042 362.57104883 C-147.67856696 374.7935907 -159.87811694 387.02638656 -172.07349423 399.26339372 C-184.60529774 411.8376235 -197.14651492 424.40240242 -209.69693679 436.9580496 C-216.73909122 444.00361583 -223.77702989 451.05328406 -230.80439186 458.11360741 C-236.7856433 464.12286894 -242.77533872 470.12354937 -248.77620558 476.11322566 C-251.83596028 479.16779767 -254.89155068 482.22624679 -257.93629837 485.295784 C-260.72674823 488.10876249 -263.5286182 490.90982795 -266.3398008 493.70208255 C-267.35153482 494.71102184 -268.35910646 495.72415721 -269.36189411 496.7419888 C-275.88110803 503.35293816 -282.95698742 510.16510065 -292.6640625 511.03125 C-314.71189763 510.46471034 -325.8592483 494.41724798 -340.66772461 479.6184082 C-342.34590153 477.9448695 -344.02427208 476.27152493 -345.70281982 474.59835815 C-350.22753482 470.08666061 -354.74900183 465.57172245 -359.26944423 461.05574441 C-362.09733712 458.23079568 -364.9257952 455.40641361 -367.75445747 452.58223534 C-375.60504468 444.74381366 -383.45470388 436.90446528 -391.30091 429.06165791 C-391.80069226 428.56209521 -392.30047453 428.06253251 -392.81540171 427.54783155 C-393.31626331 427.04718822 -393.81712492 426.54654489 -394.33316416 426.03073055 C-395.3478403 425.01649784 -396.36251801 424.0022667 -397.37719727 422.98803711 C-398.1321436 422.23342292 -398.1321436 422.23342292 -398.90234137 421.463564 C-407.07613044 413.29373174 -415.25666545 405.13068974 -423.44008689 396.970507 C-431.86585679 388.56846957 -440.28597128 380.160799 -448.70046622 371.7474696 C-453.4156853 367.03316518 -458.1334337 362.32144037 -462.85713005 357.61562538 C-467.29364158 353.19558687 -471.72294477 348.76845043 -476.14683533 344.3357811 C-477.76918888 342.71265714 -479.39410213 341.09208695 -481.0217762 339.47429848 C-483.24659253 337.2622033 -485.46191279 335.04100319 -487.67515564 332.81733704 C-488.31775815 332.18279093 -488.96036067 331.54824482 -489.62243599 330.89447004 C-496.76520123 323.67302126 -500.85138358 317.19091583 -501.0625 306.875 C-501.09988281 306.20919922 -501.13726562 305.54339844 -501.17578125 304.85742188 C-501.33480209 295.59004081 -496.41826803 288.78238054 -490.19802856 282.30638123 C-487.91967381 279.97674475 -485.61025509 277.6797964 -483.29736328 275.38452148 C-482.02618387 274.10491715 -480.75606025 272.82426324 -479.48690796 271.54264832 C-476.05638921 268.08519655 -472.61030913 264.64367001 -469.16026926 261.20571017 C-466.27742902 258.33002238 -463.40246522 255.44652454 -460.5274657 252.56300122 C-453.74712644 245.7627491 -446.95417402 238.97528639 -440.15283203 232.19604492 C-433.13955899 225.20517448 -426.14656444 218.19448558 -419.16339314 211.17355675 C-413.15886429 205.13780703 -407.14276334 199.11377193 -401.11705196 193.09916931 C-397.52160589 189.51020988 -393.93053707 185.91713912 -390.35025406 182.31304741 C-386.98684162 178.92840716 -383.60917932 175.55866824 -380.21997452 172.19986153 C-378.97923355 170.96545417 -377.74357505 169.72591389 -376.51345062 168.48092651 C-374.83279031 166.78161429 -373.13469541 165.10187494 -371.43093872 163.42576599 C-370.70790454 162.68163213 -370.70790454 162.68163213 -369.9702636 161.92246526 C-366.41977005 158.4870541 -363.59256887 157.57129228 -358.6875 157.4375 C-355.17800337 159.34483512 -353.97639051 160.58888412 -352.6875 164.375 C-352.6875 169.10167485 -354.9245188 171.59551694 -358.03725624 175.03055859 C-358.96973372 175.95989366 -359.90221119 176.88922873 -360.86294556 177.84672546 C-361.64364884 178.62893368 -361.64364884 178.62893368 -362.44012392 179.42694408 C-364.17884323 181.16661319 -365.92459589 182.89904503 -367.67041016 184.6315918 C-368.92088269 185.87986234 -370.17090713 187.12858191 -371.42051697 188.37771606 C-374.10877461 191.0630434 -376.80015495 193.74518704 -379.49400711 196.42490196 C-383.75059876 200.65922233 -388.00008617 204.90062435 -392.24862671 209.14302063 C-398.96549962 215.84851798 -405.68703059 222.54932371 -412.41060483 229.24810106 C-424.46194983 241.25508229 -436.50767728 253.26769306 -448.5482372 265.28548938 C-452.7761383 269.50496597 -457.00683147 273.72161757 -461.23976541 277.93604505 C-463.8667794 280.55244429 -466.49178671 283.17084989 -469.11628914 285.78976822 C-470.33730426 287.00730214 -471.55919068 288.22396296 -472.78199196 289.43970299 C-474.44562307 291.09393494 -476.10619139 292.75118123 -477.76602173 294.40922546 C-478.69774515 295.33742946 -479.62946857 296.26563345 -480.58942604 297.22196484 C-483.87207607 300.68839486 -484.17420622 303.24693935 -484.07532161 307.90027982 C-482.98597386 315.02704895 -475.38485979 321.02792862 -470.46983337 325.90913391 C-469.76586365 326.61622362 -469.06189392 327.32331333 -468.33659178 328.05182999 C-465.99465266 330.40169738 -463.64568915 332.7444092 -461.29663086 335.0871582 C-459.60888434 336.7776168 -457.92156316 338.46850013 -456.2346344 340.15977478 C-452.13884333 344.26372087 -448.03841112 348.36298467 -443.93563598 352.45994792 C-440.60119225 355.78986446 -437.26871842 359.12174064 -433.93762398 362.45500755 C-433.22496561 363.16812562 -433.22496561 363.16812562 -432.4979101 363.89565011 C-431.5326195 364.86158019 -430.56733338 365.82751474 -429.60205168 366.79345372 C-420.56571236 375.83548654 -411.52326963 384.87139561 -402.47870494 393.90519973 C-394.72149883 401.65346255 -386.9695634 409.4069661 -379.22143555 417.16430664 C-370.21404071 426.1824065 -361.20340802 435.19725075 -352.18758875 444.20692891 C-351.22624174 445.16763885 -350.26489889 446.12835295 -349.30356026 447.08907127 C-348.83060678 447.5617162 -348.3576533 448.03436113 -347.8703679 448.52132863 C-344.54055042 451.84942051 -341.21305672 455.17982487 -337.88645744 458.51113319 C-333.41025371 462.99310824 -328.92919717 467.47017384 -324.4443264 471.94347572 C-322.79825648 473.58689841 -321.15389121 475.23203049 -319.51134872 476.87897873 C-317.27154813 479.12423322 -315.02569623 481.36325412 -312.77818298 483.6007843 C-311.80230371 484.58335574 -311.80230371 484.58335574 -310.80670971 485.5857771 C-304.60461659 491.78394512 -304.60461659 491.78394512 -296.375 494.0625 C-292.60566387 493.85083438 -290.81225593 493.10079152 -288.04937553 490.54492474 C-287.3556666 489.90592405 -286.66195766 489.26692336 -285.94722724 488.60855901 C-281.6538991 484.48369448 -277.41622358 480.30717408 -273.20999146 476.09370422 C-272.16939584 475.05497996 -271.12858509 474.01647119 -270.08757961 472.9781577 C-267.24547775 470.1421394 -264.40647259 467.3030392 -261.5680027 464.46338642 C-258.49964259 461.39482145 -255.42841864 458.32912497 -252.35758972 455.26303101 C-246.3506349 449.26436247 -240.3464419 443.26293704 -234.34334965 437.26040331 C-229.46583676 432.38336619 -224.5875337 427.50712086 -219.70867538 422.63142967 C-205.87406439 408.8056168 -192.04154333 394.97771787 -178.21170606 381.14712987 C-177.46701884 380.4024027 -176.72233162 379.65767552 -175.95507812 378.89038086 C-175.20948245 378.1447443 -174.46388678 377.39910775 -173.69569729 376.63087615 C-161.59306348 364.52783526 -149.4854403 352.42979924 -137.37556411 340.33400521 C-124.93913126 327.91192033 -112.50641457 315.48612685 -100.07758605 303.05643338 C-93.10028809 296.07880308 -86.12145037 289.10272884 -79.13861465 282.13064003 C-73.19853919 276.1996484 -67.26191068 270.2652335 -61.32977958 264.32629553 C-58.30219884 261.29543993 -55.2730095 258.26623846 -52.23947334 255.24134254 C-49.46468208 252.47437375 -46.69451555 249.70286219 -43.92801736 246.92760243 C-42.92459263 245.92263338 -41.91946261 244.91936362 -40.91249718 243.91794232 C-39.54746859 242.55993504 -38.18915182 241.19519106 -36.83120918 239.83009815 C-36.07382678 239.07293312 -35.31644438 238.31576809 -34.536111 237.53565866 C-31.14807744 233.69026774 -30.39040241 230.9141632 -30.52856636 225.76221466 C-30.83724046 221.24725347 -31.48578567 216.78735144 -32.14038086 212.31152344 C-32.37205711 210.68080902 -32.37205711 210.68080902 -32.6084137 209.01715088 C-33.11763443 205.44292639 -33.63485207 201.86991057 -34.15234375 198.296875 C-34.50910109 195.80688516 -34.86542306 193.31683291 -35.22132874 190.82672119 C-35.96696294 185.61803307 -36.71613357 180.40986698 -37.46850586 175.20214844 C-38.33764124 169.1860653 -39.20144246 163.1692362 -40.06210417 157.15193534 C-40.89183421 151.35094419 -41.72406683 145.5503155 -42.55771065 139.74988556 C-42.91178755 137.2859334 -43.26543074 134.82191887 -43.61863518 132.35784149 C-44.11199532 128.92021013 -44.60816976 125.48299726 -45.10522461 122.04589844 C-45.32424942 120.51539856 -45.32424942 120.51539856 -45.54769897 118.95397949 C-45.6837001 118.01765686 -45.81970123 117.08133423 -45.95982361 116.11663818 C-46.13542517 114.89886499 -46.13542517 114.89886499 -46.31457424 113.65649033 C-46.66926082 111.54602711 -47.13724764 109.50470292 -47.6875 107.4375 C-48.40292969 107.87320313 -49.11835938 108.30890625 -49.85546875 108.7578125 C-55.37964264 112.0594533 -60.67431234 114.90913285 -66.625 117.375 C-71.7464623 119.65864847 -74.09228915 121.51384876 -76.58984375 126.48046875 C-79.92806535 132.43224463 -86.68758086 136.27962867 -93.0625 138.125 C-101.55959238 139.13655862 -109.24706103 138.57643099 -116.40625 133.515625 C-122.85787016 128.01277251 -127.81868725 122.12562746 -128.6875 113.4375 C-129.30780684 104.28797407 -127.55451877 97.17344723 -121.5625 90.0625 C-115.10783116 83.4308483 -108.65728284 80.87689899 -99.4609375 80.3359375 C-91.67272549 80.62113963 -84.52669571 83.48755826 -79.0625 89.109375 C-72.6875 96.28125 -72.6875 96.28125 -72.6875 101.4375 C-68.26151208 99.14191038 -63.8667023 96.80073908 -59.49560547 94.40234375 C-58.05566585 93.63396117 -56.58125934 92.93026447 -55.09765625 92.25 C-52.87060687 91.2276973 -52.87060687 91.2276973 -50.6875 88.4375 C-50.00238913 81.61416609 -50.92188057 72.37231121 -54.6875 66.4375 C-59.50138903 62.58368172 -63.56503964 61.58325541 -69.60546875 60.7890625 C-70.98770882 60.58807449 -70.98770882 60.58807449 -72.39787292 60.38302612 C-75.55498466 59.92797448 -78.71476903 59.49532045 -81.875 59.0625 C-84.15789776 58.7389181 -86.44060588 58.41399605 -88.72314453 58.08789062 C-93.34742072 57.42973081 -97.97248514 56.77775038 -102.59859085 56.13261795 C-113.95538639 54.54850628 -125.30538462 52.91800027 -136.65547371 51.28663254 C-145.65975069 49.99364989 -154.66514263 48.70845152 -163.67041397 47.42241669 C-167.06243459 46.93750935 -170.45425271 46.45120534 -173.84603882 45.96466064 C-179.25876109 45.18875514 -184.67230217 44.41881357 -190.08648109 43.65314102 C-192.10858915 43.36627032 -194.13042542 43.07747654 -196.151968 42.7866478 C-198.95004711 42.38444767 -201.74903082 41.98923866 -204.54833984 41.59570312 C-205.7666866 41.41816466 -205.7666866 41.41816466 -207.00964642 41.23703957 C-215.96244538 39.77446506 -215.96244538 39.77446506 -224.5532074 41.81343079 C-229.38480715 45.53416305 -233.56407445 50.08877475 -237.83618164 54.42260742 C-238.85310746 55.44665351 -239.87051029 56.47022611 -240.88835144 57.49336243 C-243.07150222 59.68956986 -245.25159556 61.88875172 -247.42943001 64.09023094 C-250.87360696 67.5711023 -254.32656299 71.04317489 -257.78111267 74.51374817 C-267.60031599 84.38117744 -277.40758928 94.26041436 -287.20629883 104.14819336 C-292.62404965 109.61503529 -298.04896041 115.07467006 -303.4816522 120.52666551 C-306.91736867 123.97546457 -310.34387748 127.43308087 -313.76384556 130.89749372 C-315.89153361 133.04863383 -318.0275291 135.19137147 -320.16597176 137.33181572 C-321.15591704 138.3260571 -322.14241607 139.32374356 -323.12517929 140.32508469 C-324.46694264 141.69122329 -325.82233054 143.04394061 -327.17835999 144.3959198 C-328.31015481 145.53714184 -328.31015481 145.53714184 -329.46481419 146.70141888 C-331.95851413 148.64918197 -333.5589048 149.16388893 -336.6875 149.4375 C-340.01317907 148.64567165 -341.36608028 147.82320366 -343.5625 145.1875 C-344.98828253 141.70225381 -344.64862517 140.05629091 -343.6875 136.4375 C-341.90012264 134.02371025 -341.90012264 134.02371025 -339.52098083 131.64279175 C-338.62243881 130.73159576 -337.72389679 129.82039978 -336.79812622 128.8815918 C-335.79461846 127.88939967 -334.79085622 126.89746487 -333.78686523 125.90576172 C-332.73462528 124.8483815 -331.68345839 123.78993251 -330.63328552 122.73049927 C-327.78078701 119.85948684 -324.91279396 117.00443486 -322.04121661 114.15252066 C-319.03426142 111.1619639 -316.03993356 108.15880903 -313.04371643 105.15750122 C-308.00756093 100.11682438 -302.96130324 95.08643531 -297.90893555 90.06201172 C-292.0770765 84.26216114 -286.26136716 78.44649636 -280.4541344 72.62199581 C-274.85975221 67.01171562 -269.25408702 61.41284079 -263.64323616 55.81903458 C-261.25976846 53.44241974 -258.88027492 51.06192935 -256.50393486 48.67818832 C-253.70017974 45.86673808 -250.88663458 43.06545664 -248.06542397 40.27152634 C-247.03490273 39.24785787 -246.00770877 38.22082656 -244.98423004 37.19011688 C-238.03193325 30.1944021 -231.41862662 23.89309326 -221.09934616 23.28498077 C-213.77865154 23.2660226 -206.76178704 23.91023057 -199.52832031 24.99804688 C-198.37874344 25.16385757 -197.22916656 25.32966827 -196.04475403 25.50050354 C-192.28388194 26.04473307 -188.52482926 26.60062833 -184.765625 27.15625 C-182.13405742 27.53829633 -179.50238946 27.91956141 -176.87054443 28.29968262 C-169.26344127 29.4001202 -161.6582239 30.5132602 -154.05315399 31.6276474 C-144.35891512 33.04743775 -134.66374308 34.46076118 -124.9670856 35.86393976 C-120.45352518 36.51756479 -115.94140643 37.18061927 -111.42950439 37.84558105 C-109.0627465 38.189668 -106.6959477 38.53347374 -104.32910156 38.87695312 C-103.26397842 39.03591568 -102.19885529 39.19487823 -101.10145569 39.35865784 C-91.53775542 41.20451166 -91.53775542 41.20451166 -82.5168457 39.12744141 C-81.97116943 38.52077637 -81.42549316 37.91411133 -80.86328125 37.2890625 C-80.23413818 36.61818604 -79.60499512 35.94730957 -78.95678711 35.25610352 C-77.98817749 34.17026978 -77.98817749 34.17026978 -77 33.0625 C-75.59676251 31.57930131 -74.18785892 30.10144346 -72.7734375 28.62890625 C-72.08217773 27.90719238 -71.39091797 27.18547852 -70.67871094 26.44189453 C-55.09996827 10.76000668 -22.9570853 -10.36628076 0 0 Z M-95.6875 97.4375 C-95.42093428 100.37193402 -95.42093428 100.37193402 -94.6875 103.4375 C-91.97200846 105.74421915 -91.97200846 105.74421915 -89.5 105.0625 C-88.901875 104.85625 -88.30375 104.65 -87.6875 104.4375 C-88.450625 103.468125 -89.21375 102.49875 -90 101.5 C-90.42925781 100.95472656 -90.85851562 100.40945312 -91.30078125 99.84765625 C-92.74433091 98.16594923 -92.74433091 98.16594923 -95.6875 97.4375 Z M-111.6875 104.4375 C-112.54864699 108.35180448 -112.91095413 110.80437997 -111.5625 114.625 C-108.61673914 119.04364128 -106.27064466 121.05536163 -101.0625 122.3125 C-97.55533571 122.77197403 -97.55533571 122.77197403 -94.6875 120.4375 C-95.35136719 120.169375 -96.01523437 119.90125 -96.69921875 119.625 C-103.35222434 116.67242526 -106.44876016 113.88799017 -109.6875 107.4375 C-110.3475 106.4475 -111.0075 105.4575 -111.6875 104.4375 Z " fill="#000000" transform="translate(500.6875,1.5625)"/>
<path d="M0 0 C6.91797236 3.72606421 11.42983424 8.95678027 14.35546875 16.21484375 C15.2904067 19.4389631 15.2837594 22.10332703 15 25.4375 C15.556875 25.46328125 16.11375 25.4890625 16.6875 25.515625 C25.27571606 26.15393836 31.55557356 29.05133197 37.45703125 35.3984375 C42.65625279 42.26930749 44.15132023 49.99044526 43 58.4375 C41.04284835 66.95305386 36.02028141 72.37488188 30 78.4375 C28.81329308 79.66096482 27.62712913 80.88495647 26.44140625 82.109375 C25.19156425 83.3868468 23.94026469 84.66289423 22.6875 85.9375 C22.0888916 86.54948242 21.4902832 87.16146484 20.87353516 87.79199219 C20.30038574 88.36594727 19.72723633 88.93990234 19.13671875 89.53125 C18.62842529 90.04365234 18.12013184 90.55605469 17.59643555 91.08398438 C14.52979392 93.68399373 12.85465762 94.46908001 8.73561096 94.31687927 C4.2879903 93.26988978 2.05660584 91.31232851 -1.01123047 88.12329102 C-1.84428459 87.29396057 -1.84428459 87.29396057 -2.69416809 86.44787598 C-4.51656031 84.62639816 -6.31670999 82.78452776 -8.1171875 80.94140625 C-9.38149818 79.66843678 -10.64707147 78.39672021 -11.91384888 77.12620544 C-15.23798633 73.78486701 -18.54329138 70.42547011 -21.84539795 67.06237793 C-24.54960342 64.31450246 -27.26686626 61.57974778 -29.98492241 58.84558201 C-33.22081226 55.59011327 -36.45117216 52.32918706 -39.6796875 49.06640625 C-40.29757015 48.4420978 -40.9154528 47.81778934 -41.55205917 47.17456245 C-43.29272271 45.41297157 -45.02963037 43.64777375 -46.76513672 41.88110352 C-47.28353622 41.35687302 -47.80193573 40.83264252 -48.33604431 40.29252625 C-51.32723927 37.23751597 -52.81669978 35.58312635 -53.5 31.3125 C-52.76636755 25.62684853 -49.97708907 23.39611961 -46 19.4375 C-44.82420308 18.21611095 -43.64984919 16.99333187 -42.4765625 15.76953125 C-41.17339279 14.42821121 -39.86868568 13.08838325 -38.5625 11.75 C-37.94238037 11.10804688 -37.32226074 10.46609375 -36.68334961 9.8046875 C-26.74429654 -0.19805245 -13.98145918 -5.66031392 0 0 Z M-28.375 24.6875 C-28.92027344 25.24179687 -29.46554688 25.79609375 -30.02734375 26.3671875 C-31.35622977 27.71938731 -32.67878548 29.0778035 -34 30.4375 C-29.30233025 36.09879431 -24.25276628 41.28978904 -19 46.4375 C-16.10261071 45.12654236 -14.03715911 43.72289071 -11.80078125 41.46875 C-10.94709961 40.61216797 -10.94709961 40.61216797 -10.07617188 39.73828125 C-9.49416016 39.14402344 -8.91214844 38.54976563 -8.3125 37.9375 C-7.71888672 37.34324219 -7.12527344 36.74898438 -6.51367188 36.13671875 C-2.05951615 31.73461719 -2.05951615 31.73461719 -0.625 25.6875 C-0.64941225 22.33691932 -1.24398646 20.58855468 -3.375 18 C-6.95298086 14.50720916 -8.78005074 14.29454435 -13.734375 14.01171875 C-19.82321387 15.15600054 -24.22785344 20.40723516 -28.375 24.6875 Z M4.44921875 47.79296875 C3.19014865 49.06522283 1.9363489 50.34271128 0.6875 51.625 C0.04232422 52.27919922 -0.60285156 52.93339844 -1.26757812 53.60742188 C-2.84970516 55.21298783 -4.4269513 56.8230469 -6 58.4375 C-2.5191826 62.5788833 1.01695326 66.57540851 4.875 70.375 C6.04675781 71.53322266 6.04675781 71.53322266 7.2421875 72.71484375 C7.82226562 73.28332031 8.40234375 73.85179687 9 74.4375 C12.92693286 72.84073297 15.62442597 70.14539909 18.5625 67.1875 C19.04396484 66.72214844 19.52542969 66.25679687 20.02148438 65.77734375 C23.64009317 62.1637124 26.59991421 58.4682869 27.28515625 53.27734375 C26.80903992 49.20947268 26.2102302 47.67275761 23.375 44.5 C15.30749265 39.56985662 10.73095018 41.66050454 4.44921875 47.79296875 Z " fill="#000000" transform="translate(106,283.5625)"/>
<path d="M0 0 C4.44702024 4.87525182 7.29658639 10.08598091 7.33203125 16.796875 C7.23921875 18.5603125 7.23921875 18.5603125 7.14453125 20.359375 C8.05332031 20.36324219 8.05332031 20.36324219 8.98046875 20.3671875 C23.21574691 21.02420034 31.4999451 31.20121201 40.81274414 40.85058594 C42.93577669 43.25578138 43.15229821 44.44325821 43.45703125 47.734375 C43.14453125 51.359375 43.14453125 51.359375 41.64453125 53.796875 C38.81490502 55.5653914 36.64426146 55.93823514 33.31982422 55.86987305 C28.94673722 54.8435964 26.34730779 51.28839009 23.45703125 48.046875 C17.42760695 40.6986422 17.42760695 40.6986422 9.10302734 37.16455078 C3.30949703 37.33071322 0.3210134 39.311038 -3.62304688 43.42382812 C-4.5115332 44.41286133 -4.5115332 44.41286133 -5.41796875 45.421875 C-6.35866211 46.41670898 -6.35866211 46.41670898 -7.31835938 47.43164062 C-8.85062842 49.05748336 -10.36101733 50.69883793 -11.85546875 52.359375 C-10.38027379 55.79200306 -8.45560209 57.98073944 -5.79296875 60.58203125 C-4.99632812 61.36771484 -4.1996875 62.15339844 -3.37890625 62.96289062 C-2.12980469 64.18008789 -2.12980469 64.18008789 -0.85546875 65.421875 C0.79258887 67.03549179 2.43851989 68.65128422 4.08203125 70.26953125 C4.81292969 70.98246338 5.54382813 71.69539551 6.296875 72.42993164 C8.99266598 75.24505269 10.09142514 76.87256895 10.51953125 80.796875 C10.14453125 84.359375 10.14453125 84.359375 8.45703125 86.734375 C5.80742298 88.59626189 4.38739378 89.28216399 1.14453125 89.359375 C-3.57612531 87.39979922 -6.92534637 84.71380386 -10.46191406 81.109375 C-10.98627045 80.58706299 -11.51062683 80.06475098 -12.0508728 79.52661133 C-13.76911827 77.81135554 -15.47642351 76.08564834 -17.18359375 74.359375 C-18.38033565 73.1595727 -19.57767165 71.96036271 -20.77557373 70.76171875 C-23.27816523 68.25453585 -25.77577956 65.74253756 -28.26953125 63.2265625 C-31.46610897 60.00164235 -34.67135611 56.78551848 -37.87990189 53.57250977 C-40.34934817 51.09890804 -42.81595059 48.62248805 -45.28151703 46.14501953 C-46.46281391 44.95802727 -47.64457915 43.77150092 -48.82682037 42.58544922 C-50.47604862 40.92934831 -52.12184524 39.26991581 -53.76660156 37.609375 C-54.25492462 37.11993408 -54.74324768 36.63049316 -55.24636841 36.1262207 C-58.36922497 32.96359995 -60.6261893 30.65862522 -61.41796875 26.171875 C-60.82568607 22.15751461 -60.41152343 21.47084079 -57.80859375 18.6328125 C-57.17252197 17.93551025 -56.5364502 17.23820801 -55.88110352 16.51977539 C-55.21264404 15.80684326 -54.54418457 15.09391113 -53.85546875 14.359375 C-53.22374756 13.6780249 -52.59202637 12.9966748 -51.94116211 12.29467773 C-49.99963032 10.22857154 -48.02628624 8.19784447 -46.04296875 6.171875 C-45.39521484 5.48673828 -44.74746094 4.80160156 -44.08007812 4.09570312 C-31.89385844 -8.30535686 -13.97759008 -12.35913228 0 0 Z M-27.85546875 11.359375 C-30.35576416 13.41920741 -32.57149769 15.6927788 -34.79296875 18.046875 C-35.38142578 18.65337891 -35.96988281 19.25988281 -36.57617188 19.88476562 C-38.01198602 21.36727291 -39.43507457 22.8620873 -40.85546875 24.359375 C-39.53426047 27.29167693 -38.10908678 29.34602399 -35.81640625 31.59375 C-35.23632812 32.16738281 -34.65625 32.74101562 -34.05859375 33.33203125 C-33.4553125 33.91855469 -32.85203125 34.50507813 -32.23046875 35.109375 C-31.61945313 35.71136719 -31.0084375 36.31335938 -30.37890625 36.93359375 C-28.87558251 38.41342805 -27.36612019 39.88702176 -25.85546875 41.359375 C-14.94025991 33.34133549 -14.94025991 33.34133549 -8.58203125 22.37109375 C-8.39581133 18.10952257 -8.40222666 16.00490162 -10.91796875 12.421875 C-17.00978894 8.14463954 -21.45327646 7.57261045 -27.85546875 11.359375 Z " fill="#000000" transform="translate(244.85546875,320.640625)"/>
<path d="M0 0 C2.44053024 1.79828544 3.63399544 3.18956132 4.875 5.9375 C5.0809095 9.3350068 3.93761569 11.86405777 1.77264404 14.48696899 C0.1837545 16.16288369 -1.44664841 17.78377673 -3.1015625 19.39453125 C-3.69802582 19.98674973 -4.29448914 20.5789682 -4.9090271 21.18913269 C-6.80740103 23.07077354 -8.71595933 24.94168823 -10.625 26.8125 C-11.91735373 28.08980001 -13.20902839 29.36778747 -14.5 30.64648438 C-17.65885529 33.77234164 -20.8268834 36.88862334 -24 40 C-23.04957913 41.11674511 -22.09802392 42.23252489 -21.14599609 43.34790039 C-20.61622162 43.9693544 -20.08644714 44.59080841 -19.5406189 45.23109436 C-17.65646139 47.39444368 -15.67078197 49.42699013 -13.625 51.4375 C-12.93664062 52.11683594 -12.24828125 52.79617188 -11.5390625 53.49609375 C-11.03117187 53.99238281 -10.52328125 54.48867188 -10 55 C-6.03825353 53.41786076 -3.48308371 50.65776795 -0.60546875 47.625 C0.44291781 46.54644561 1.49176034 45.46833429 2.54101562 44.390625 C4.17877168 42.69718966 5.81231367 41.00019549 7.43774414 39.29492188 C9.01616895 37.64354365 10.61021762 36.00857726 12.20703125 34.375 C12.68332474 33.86662598 13.15961823 33.35825195 13.65034485 32.83447266 C17.12897247 29.30495293 20.13247323 27.85164863 25 27 C30.52272727 29.04545455 30.52272727 29.04545455 32 32 C32.60234147 34.89123907 32.7488148 36.21419948 32 39 C29.49559763 42.76755575 26.19922675 45.82705386 23 49 C21.38994553 50.62172153 19.78063669 52.2441835 18.171875 53.8671875 C13.46864077 58.59912422 8.74102865 63.30595517 4 68 C7.33116615 71.95374187 10.68428556 75.81041857 14.375 79.4375 C15.06335938 80.11683594 15.75171875 80.79617188 16.4609375 81.49609375 C16.96882813 81.99238281 17.47671875 82.48867188 18 83 C22.08290097 81.38448553 24.78433836 78.45360304 27.7890625 75.37109375 C28.33356049 74.8213942 28.87805847 74.27169464 29.4390564 73.70533752 C31.17253779 71.95408824 32.89916551 70.19628312 34.625 68.4375 C36.35884152 66.67604189 38.09412183 64.91606377 39.83236694 63.15895081 C40.91247367 62.06658495 41.98989603 60.97155704 43.06436157 59.87364197 C47.73823494 55.13714838 47.73823494 55.13714838 51.875 54.6875 C55 55 55 55 57.3125 56.625 C59.42750105 59.60166814 60 61.33857073 60 65 C57.00874982 70.28132253 52.97228251 74.30401477 48.6796875 78.55078125 C47.62988205 79.59989937 47.62988205 79.59989937 46.55886841 80.67021179 C45.0870258 82.13904662 43.61276687 83.60546374 42.13623047 85.06958008 C39.87015047 87.31731026 37.61226805 89.57303368 35.35546875 91.83007812 C33.92234766 93.25828695 32.48876988 94.68603768 31.0546875 96.11328125 C30.37759735 96.78925858 29.7005072 97.4652359 29.00289917 98.16169739 C28.37529694 98.78291977 27.7476947 99.40414215 27.10107422 100.04418945 C26.5491037 100.59234818 25.99713318 101.1405069 25.42843628 101.70527649 C22.93997991 103.96079395 20.4594714 104.65047548 17.09606934 104.59176636 C14.17839615 103.76804321 12.67321411 102.22177813 10.46289062 100.15673828 C9.14091675 98.92603607 9.14091675 98.92603607 7.79223633 97.67047119 C3.02103235 93.10733209 -1.71513327 88.51239757 -6.40625 83.8671875 C-6.92414597 83.35461521 -7.44204193 82.84204292 -7.97563171 82.31393814 C-10.70432441 79.61167307 -13.42953673 76.90594846 -16.15234375 74.19775391 C-18.39158371 71.97194611 -20.63791675 69.75367833 -22.890625 67.54150391 C-25.63655973 64.84492575 -28.36997691 62.13623988 -31.09489441 59.41843033 C-32.12724342 58.39276775 -33.1638218 57.37134284 -34.20478821 56.35442734 C-35.65672001 54.93421478 -37.09143317 53.49646414 -38.52539062 52.05810547 C-39.3435022 51.24808075 -40.16161377 50.43805603 -41.0045166 49.60348511 C-43.40022406 46.4778321 -44.24232002 43.84667091 -45 40 C-43.21438224 34.20716279 -38.78059663 30.37801089 -34.55859375 26.23046875 C-33.83511246 25.50886063 -33.11163116 24.7872525 -32.3662262 24.04377747 C-30.84246353 22.5267145 -29.31511849 21.01324222 -27.78442383 19.50317383 C-25.43500148 17.18503474 -23.09653765 14.85627472 -20.75976562 12.52539062 C-19.27666524 11.05145562 -17.79296212 9.57812678 -16.30859375 8.10546875 C-15.60649277 7.40761765 -14.90439178 6.70976654 -14.18101501 5.99076843 C-13.53016434 5.3495253 -12.87931366 4.70828217 -12.20874023 4.04760742 C-11.34961281 3.198722 -11.34961281 3.198722 -10.47312927 2.33268738 C-7.22091281 -0.60947657 -4.25127269 -0.36648903 0 0 Z " fill="#000000" transform="translate(147,224)"/>
<path d="M0 0 C2.875 1.5 2.875 1.5 5 4 C5.90294378 10.52240073 5.90294378 10.52240073 3.90478516 13.79223633 C2.31416811 15.61057329 0.64178609 17.25857439 -1.125 18.90625 C-1.74648926 19.51641968 -2.36797852 20.12658936 -3.00830078 20.75524902 C-4.98748303 22.68983383 -6.99267398 24.59467616 -9 26.5 C-10.35077648 27.81062876 -11.69975719 29.123111 -13.046875 30.4375 C-16.34417189 33.64683862 -19.66507729 36.82979612 -23 40 C-21.71825282 42.81878012 -20.38992385 44.85241496 -18.1796875 47.015625 C-17.64472656 47.54414063 -17.10976563 48.07265625 -16.55859375 48.6171875 C-16.00300781 49.15601563 -15.44742187 49.69484375 -14.875 50.25 C-14.31167969 50.80429688 -13.74835938 51.35859375 -13.16796875 51.9296875 C-11.78313972 53.29104485 -10.39216796 54.64614859 -9 56 C-2.87067696 50.94247115 2.67487734 45.4066303 8.25 39.75 C10.02370115 37.95081463 11.79964135 36.15383305 13.578125 34.359375 C14.74456543 33.17553223 14.74456543 33.17553223 15.93457031 31.96777344 C19.03296518 29.01587478 20.61005453 28.04332727 24.9375 27.5625 C28.2247514 27.65954063 28.86605059 27.89218706 31.5625 30.0625 C33.52354335 34.06984945 33.370275 35.74493553 32 40 C27.0096533 46.78607215 20.52728318 52.59104272 14.5625 58.5 C13.64017578 59.4178125 12.71785156 60.335625 11.76757812 61.28125 C9.51400101 63.52315055 7.25810925 65.762666 5 68 C6.28174718 70.81878012 7.61007615 72.85241496 9.8203125 75.015625 C10.35527344 75.54414063 10.89023437 76.07265625 11.44140625 76.6171875 C11.99699219 77.15601563 12.55257812 77.69484375 13.125 78.25 C13.68832031 78.80429687 14.25164062 79.35859375 14.83203125 79.9296875 C16.21686028 81.29104485 17.60783204 82.64614859 19 84 C23.36287201 80.4430474 27.34004078 76.68902405 31.25 72.63671875 C31.71543213 72.15631134 32.18086426 71.67590393 32.66040039 71.18093872 C34.60134385 69.17714023 36.5412005 67.17312944 38.45703125 65.14526367 C39.87413809 63.64913689 41.30990314 62.17318564 42.75 60.69921875 C43.59046875 59.82096436 44.4309375 58.94270996 45.296875 58.0378418 C48.60831945 55.5413979 50.88879997 55.14268353 55 55 C57.9375 56.4375 57.9375 56.4375 60 59 C60.77658592 62.88292962 61.12557327 65.30602595 58.89868164 68.6574707 C53.00632081 75.13786188 46.82143264 81.32954752 40.61889648 87.51147461 C38.67118197 89.45377265 36.7289407 91.4014314 34.78710938 93.34960938 C33.54980017 94.58625875 32.31218132 95.82259842 31.07421875 97.05859375 C30.49403488 97.64080185 29.91385101 98.22300995 29.31608582 98.82286072 C24.32103745 103.78863401 24.32103745 103.78863401 19.875 104.5 C15.86125205 103.98209704 15.29696377 103.74765256 12.50170898 101.19335938 C11.80173798 100.55422607 11.10176697 99.91509277 10.38058472 99.2565918 C5.56618425 94.69294972 0.81608447 90.06872601 -3.90234375 85.40625 C-4.4564197 84.85874588 -5.01049564 84.31124176 -5.58136177 83.74714661 C-8.50369404 80.8571502 -11.42211599 77.96326007 -14.33813477 75.06689453 C-16.74224169 72.68069454 -19.15460956 70.3033337 -21.57446289 67.93310547 C-24.51478608 65.05296778 -27.44011765 62.15837962 -30.35534859 59.25285339 C-31.46301098 58.15373153 -32.57578771 57.05973803 -33.69379997 55.97114563 C-35.25424216 54.44964217 -36.79465645 52.91023719 -38.33178711 51.36523438 C-39.21144638 50.49588257 -40.09110565 49.62653076 -40.99742126 48.73083496 C-43.42877375 45.41529872 -43.8190264 43.07243037 -44 39 C-41.97718093 33.88683345 -37.40871449 30.13872849 -33.55859375 26.328125 C-32.83511246 25.60510193 -32.11163116 24.88207886 -31.3662262 24.137146 C-29.84132632 22.61525913 -28.31400481 21.0957953 -26.78442383 19.57861328 C-24.43706384 17.24956725 -22.097862 14.9125606 -19.75976562 12.57421875 C-18.2765138 11.09588031 -16.79280558 9.61799962 -15.30859375 8.140625 C-14.60649277 7.43963684 -13.90439178 6.73864868 -13.18101501 6.01641846 C-12.53016434 5.37194763 -11.87931366 4.72747681 -11.20874023 4.06347656 C-10.34961281 3.21006683 -10.34961281 3.21006683 -9.47312927 2.3394165 C-6.46170056 -0.39867131 -3.96918813 -0.38913609 0 0 Z " fill="#000000" transform="translate(350,183)"/>
<path d="M0 0 C3.58978669 2.82054669 5.34779091 4.43389662 6.125 9 C5.44310427 13.17661135 3.99496335 14.57165752 0.625 17.0625 C-4.70467443 18.08307595 -7.06447877 15.96550409 -11.375 13.0625 C-15.76526248 11.78533273 -17.69876733 11.77777046 -21.9375 13.5625 C-26.35280789 16.47281581 -30.26944718 20.02222975 -32.109375 25.08203125 C-32.82970611 28.84936295 -32.40549458 30.99916511 -30.75 34.4375 C-28.248474 37.20234453 -26.99284493 38.28724751 -23.375 39.0625 C-17.8707183 39.18481737 -15.32876574 36.51945431 -11.5234375 32.9765625 C-3.52844766 25.85375337 3.60639426 22.5562385 14.3359375 22.75 C22.08244457 23.48601017 28.41610032 27.36653438 33.625 33.0625 C39.00728292 40.60423989 39.34985167 48.02317326 38.625 57.0625 C36.52752614 66.13265723 29.17953214 73.59074238 21.9375 79.0625 C14.48849728 83.56001107 7.1590335 83.99092782 -1.375 83.0625 C-6.66550146 81.32892837 -12.06031021 78.67424232 -15.375 74.0625 C-16.46810383 71.01742506 -16.49681739 69.4990123 -15.625 66.375 C-14.375 64.0625 -14.375 64.0625 -11.375 62.0625 C-7.08177141 61.57647412 -5.05417361 61.60008392 -1.4375 64.0625 C1.70202933 66.11280487 3.77582656 66.7799844 7.5390625 66.578125 C12.93303784 65.24478278 16.63544357 61.22522881 20.125 57.125 C21.94309782 53.41305029 22.14535894 51.15103455 21.625 47.0625 C20.37044028 44.23974064 19.34115278 42.59961459 16.875 40.75 C13.42750991 39.69660025 11.23581344 39.52087798 7.625 40.0625 C4.68553787 42.10657486 2.20374468 44.58809759 -0.375 47.0625 C-6.90138913 52.78462704 -13.22172928 55.51036385 -21.875 56.4375 C-31.43556849 55.41315338 -37.97011041 52.39544502 -44.375 45.0625 C-48.67360891 38.49584053 -50.18452138 31.84819094 -49.375 24.0625 C-47.06226346 13.34265362 -40.58237867 5.79800836 -31.75 -0.4375 C-21.03731108 -7.0099296 -10.56119587 -6.06290874 0 0 Z " fill="#000000" transform="translate(209.375,186.9375)"/>
<path d="M0 0 C7.43762666 5.45939781 10.91368285 12.28972846 12.375 21.31640625 C12.82714174 29.21475726 10.30487957 36.45215627 5.203125 42.44921875 C2.24344607 45.7416102 -0.8486807 48.8918343 -4 52 C-5.175625 53.17755859 -5.175625 53.17755859 -6.375 54.37890625 C-6.91125 54.91386719 -7.4475 55.44882812 -8 56 C-6.48016622 59.65882062 -4.31938161 61.80908662 -1.4296875 64.484375 C-0.53378906 65.33773437 0.36210937 66.19109375 1.28515625 67.0703125 C3.17475797 68.85334796 5.07583535 70.62430154 6.98828125 72.3828125 C14.61783253 79.71510854 14.61783253 79.71510854 14.71484375 84.484375 C14 88 14 88 12.4375 90.5 C8.89383548 92.68071663 7.10900306 92.75331723 3 92 C-4.31860529 86.86681385 -10.54581351 79.68740304 -16.90234375 73.40625 C-17.4564197 72.85874588 -18.01049564 72.31124176 -18.58136177 71.74714661 C-21.50369404 68.8571502 -24.42211599 65.96326007 -27.33813477 63.06689453 C-29.74224169 60.68069454 -32.15460956 58.3033337 -34.57446289 55.93310547 C-37.51478608 53.05296778 -40.44011765 50.15837962 -43.35534859 47.25285339 C-44.46301098 46.15373153 -45.57578771 45.05973803 -46.69379997 43.97114563 C-48.25424216 42.44964217 -49.79465645 40.91023719 -51.33178711 39.36523438 C-52.21144638 38.49588257 -53.09110565 37.62653076 -53.99742126 36.73083496 C-56.43212901 33.41072329 -56.83409519 31.08043925 -57 27 C-54.35052954 20.98846584 -48.95040973 16.58205038 -44.375 12 C-43.51003906 11.11054688 -42.64507812 10.22109375 -41.75390625 9.3046875 C-30.00068678 -2.50139503 -15.78700515 -9.2418123 0 0 Z M-31.4375 22.25 C-31.97826172 22.80429687 -32.51902344 23.35859375 -33.07617188 23.9296875 C-34.39118209 25.27960949 -35.69662536 26.63884028 -37 28 C-35.67879172 30.93230193 -34.25361803 32.98664899 -31.9609375 35.234375 C-31.38085938 35.80800781 -30.80078125 36.38164062 -30.203125 36.97265625 C-29.59984375 37.55917969 -28.9965625 38.14570313 -28.375 38.75 C-27.76398438 39.35199219 -27.15296875 39.95398438 -26.5234375 40.57421875 C-25.02011376 42.05405305 -23.51065144 43.52764676 -22 45 C-19.62461505 43.03772548 -17.30405609 41.04444414 -15 39 C-14.1234375 38.2265625 -13.246875 37.453125 -12.34375 36.65625 C-6.58085412 31.58273984 -6.58085412 31.58273984 -3.625 24.75 C-4.06998719 20.30012812 -5.04999915 18.33815886 -8 15 C-10.51132035 13.06821511 -12.26934933 12.13459355 -15.375 11.5625 C-22.14941393 12.69156899 -26.88504972 17.47478239 -31.4375 22.25 Z " fill="#000000" transform="translate(191,367)"/>
<path d="M0 0 C2.43826452 2.76009362 2.96706787 3.73654299 3.4375 7.5 C3 11 3 11 1.4375 13.4375 C-2.03266897 15.66196729 -3.9280852 15.61078722 -8 15 C-10.12839851 13.84728901 -12.08999281 12.54388948 -14.09375 11.1875 C-18.02631402 8.73770602 -21.10760493 8.84343946 -25.5625 9.625 C-30.24638158 11.49855263 -32.76203865 13.97424506 -35.375 18.25 C-36.32841083 22.44500764 -36.20783454 25.86585703 -35 30 C-33.74372091 31.90260855 -33.74372091 31.90260855 -32.0703125 33.64453125 C-31.43971924 34.33345459 -30.80912598 35.02237793 -30.15942383 35.73217773 C-26.09581531 39.99977067 -21.97780261 44.20663691 -17.8125 48.375 C-16.47928711 49.72658203 -16.47928711 49.72658203 -15.11914062 51.10546875 C-14.26126953 51.96527344 -13.40339844 52.82507813 -12.51953125 53.7109375 C-11.74714111 54.48743652 -10.97475098 55.26393555 -10.17895508 56.06396484 C-5.98599302 59.78947623 -2.71867737 60.40901867 2.75390625 60.23828125 C6.19494635 59.87323178 8.21553838 59.07215748 11 57 C14.39125473 52.30929252 15.84433085 47.8047746 15 42 C13.4081277 38.40712933 11.17563395 35.26345093 9 32 C9.07566643 27.83834648 9.40436755 25.70074406 12.125 22.5 C15 21 15 21 18.4375 20.8125 C24.17704857 22.72568286 26.57777941 26.19518725 29.26171875 31.48828125 C32.91240864 40.33960306 33.60976968 49.80702995 30.1015625 58.83984375 C25.82391037 67.22828924 19.90651143 72.65890373 11.2109375 76.10546875 C3.25391273 78.3222068 -6.53716125 78.46131172 -13.89086914 74.34375 C-21.65793359 69.39526954 -28.11178775 62.16455957 -34.63769531 55.71240234 C-35.71442495 54.65230299 -36.79650168 53.59760792 -37.88378906 52.54833984 C-43.96533322 46.67707156 -49.50537702 41.32830793 -52 33 C-52.37125 31.7625 -52.37125 31.7625 -52.75 30.5 C-53.80265057 19.97349431 -51.94651355 11.83346198 -45.80859375 3.078125 C-40.70127737 -2.79032492 -32.97727042 -7.05981409 -25.20703125 -7.95703125 C-15.75769769 -8.14100058 -7.40853046 -5.97831222 0 0 Z " fill="#000000" transform="translate(319,250)"/>
<path d="M0 0 C2.5625 2.0625 2.5625 2.0625 4 5 C3.91479981 9.51560998 3.36741685 11.54660417 0.49609375 15.08984375 C-0.50840801 16.05495329 -1.52843737 17.00413261 -2.5625 17.9375 C-3.08263672 18.43056641 -3.60277344 18.92363281 -4.13867188 19.43164062 C-5.41247833 20.63532929 -6.70447049 21.81972352 -8 23 C-6.45948958 26.69539856 -4.2297883 28.96674159 -1.36669922 31.73339844 C-0.89823578 32.18930359 -0.42977234 32.64520874 0.05288696 33.1149292 C1.06687132 34.10128885 2.08294272 35.08550661 3.10086441 36.06780243 C4.71255606 37.62604672 6.3151982 39.19305797 7.91525269 40.76324463 C12.46350488 45.22616018 17.01653476 49.68373812 21.60205078 54.10839844 C24.40978046 56.8189087 27.19744434 59.54871109 29.97314072 62.29199982 C31.0320473 63.3311516 32.09821524 64.36295881 33.17172623 65.3870163 C42.61993262 74.40940319 42.61993262 74.40940319 42.74951172 79.54003906 C42 83 42 83 40.4375 85.5 C36.89383548 87.68071663 35.10900306 87.75331723 31 87 C24.28519365 82.24987596 18.59065317 75.7214722 12.8125 69.91015625 C11.86008388 68.95587007 10.90744305 68.00180812 9.95458984 67.04795837 C7.47333075 64.5629203 4.99509209 62.07489204 2.51751709 59.58618164 C-0.02162485 57.03672504 -2.56367646 54.49017312 -5.10546875 51.94335938 C-10.07312882 46.96504369 -15.03759686 41.98355629 -20 37 C-24.57156656 39.12676967 -27.295179 42.32084674 -30.68359375 46.00390625 C-33.23947038 48.20635643 -34.6702796 48.75436489 -38 49 C-41.81263347 47.93600927 -42.75011007 47.3748349 -45 44 C-45.57885974 40.71979478 -45.8433239 38.25738149 -43.91699219 35.38525391 C-38.02971507 28.87972041 -31.83201448 22.68099916 -25.61889648 16.48852539 C-23.67118197 14.54622735 -21.7289407 12.5985686 -19.78710938 10.65039062 C-18.54980017 9.41374125 -17.31218132 8.17740158 -16.07421875 6.94140625 C-15.49403488 6.35919815 -14.91385101 5.77699005 -14.31608582 5.17713928 C-9.74195699 0.6298186 -6.58969441 -1.13077596 0 0 Z " fill="#000000" transform="translate(247,125)"/>
<path d="M0 0 C2.47472543 1.689003 4.18161331 3.10134627 6.21655273 5.21313477 C7.06445625 6.04482933 7.06445625 6.04482933 7.92948914 6.89332581 C9.78452796 8.72343894 11.60908749 10.58089063 13.43359375 12.44140625 C14.7188245 13.7263269 16.00539065 15.0099131 17.29322815 16.29222107 C19.98468197 18.98090916 22.66168233 21.68298289 25.32885742 24.39575195 C28.7439576 27.86762294 32.18929547 31.30748273 35.64558315 34.73829746 C38.30520671 37.38399287 40.94985794 40.04425264 43.59007454 42.7093029 C44.8549886 43.98323196 46.1240822 45.25302539 47.39742851 46.51852608 C49.17652897 48.29178721 50.93495325 50.08330407 52.68920898 51.88110352 C53.21538818 52.39827942 53.74156738 52.91545532 54.28369141 53.44830322 C57.81410668 57.12507662 58.80579882 59.93629711 59 65 C58.21270916 67.64816011 57.47719891 68.62884529 55.3125 70.3125 C51.8653764 71.33732053 49.49275007 70.81918777 46 70 C43.72712374 68.27905445 41.93886166 66.71292554 39.98876953 64.68579102 C39.15571541 63.85646057 39.15571541 63.85646057 38.30583191 63.01037598 C36.48343969 61.18889816 34.68329001 59.34702776 32.8828125 57.50390625 C31.61850182 56.23093678 30.35292853 54.95922021 29.08615112 53.68870544 C25.76201367 50.34736701 22.45670862 46.98797011 19.15460205 43.62487793 C16.45039658 40.87700246 13.73313374 38.14224778 11.01507759 35.40808201 C7.77918774 32.15261327 4.54882784 28.89168706 1.3203125 25.62890625 C0.70242985 25.0045978 0.0845472 24.38028934 -0.55205917 23.73706245 C-2.29272271 21.97547157 -4.02963037 20.21027375 -5.76513672 18.44360352 C-6.28353622 17.91937302 -6.80193573 17.39514252 -7.33604431 16.85502625 C-10.47437941 13.64973669 -11.89203331 12.16604026 -12.3125 7.625 C-12 4 -12 4 -10.5 1.5625 C-7.05686426 -0.58945984 -3.9113173 -0.70186027 0 0 Z " fill="#000000" transform="translate(248,287)"/>
</svg>
