<?xml version="1.0" encoding="UTF-8"?>
<svg version="1.1" xmlns="http://www.w3.org/2000/svg" width="512" height="512">
<path d="M0 0 C2.79524911 4.15052141 2.61466909 7.17613729 2.0625 12.0625 C1.16763252 15.57595473 -0.10071545 18.89790002 -1.42578125 22.26953125 C-1.79564651 23.24684204 -2.16551178 24.22415283 -2.54658508 25.2310791 C-3.34799428 27.34375051 -4.15612803 29.45388086 -4.97027588 31.56167603 C-6.72381102 36.1017405 -8.4448945 40.65390478 -10.1685791 45.20536804 C-11.07009655 47.58453059 -11.97335905 49.96303256 -12.8782959 52.34089661 C-17.14767609 63.56733593 -21.27996081 74.84165878 -25.38284302 86.12982178 C-27.36035761 91.56986697 -29.34418962 97.00760625 -31.328125 102.4453125 C-31.909963 104.0404216 -31.909963 104.0404216 -32.5035553 105.66775513 C-36.4108623 116.37257513 -40.35700613 127.0629077 -44.3125 137.75 C-44.65464539 138.67449951 -44.99679077 139.59899902 -45.3493042 140.55151367 C-45.69342346 141.48133057 -46.03754272 142.41114746 -46.39208984 143.36914062 C-47.09733832 145.27473677 -47.80257913 147.18033576 -48.5078125 149.0859375 C-48.86197235 150.04284485 -49.2161322 150.9997522 -49.58102417 151.98565674 C-54.1290303 164.27748962 -58.65785116 176.5763933 -63.1875 188.875 C-63.62753357 190.06966888 -64.06756714 191.26433777 -64.52093506 192.49520874 C-66.7634406 198.58350744 -69.00579379 204.67186223 -71.24804688 210.76025391 C-73.46261529 216.77333043 -75.67758691 222.78625828 -77.89286804 228.79907227 C-78.76696388 231.17160793 -79.64099741 233.54416656 -80.51496887 235.91674805 C-82.68321971 241.80263148 -84.85256599 247.68810672 -87.02416992 253.57275391 C-91.13925796 264.72750798 -95.24279403 275.88619998 -99.31082153 287.05819702 C-101.00245431 291.70365081 -102.69923129 296.34722073 -104.39715767 300.99037743 C-105.55690369 304.16307751 -106.71362089 307.33681361 -107.86328125 310.51318359 C-109.13219904 314.01534054 -110.41075852 317.51383735 -111.69140625 321.01171875 C-112.06338638 322.04644821 -112.43536652 323.08117767 -112.81861877 324.14726257 C-117.2943867 336.30042447 -117.2943867 336.30042447 -122.9375 340.0625 C-128.23937093 340.77390924 -131.42088929 338.99054194 -135.6875 336.125 C-136.69538574 335.47204956 -136.69538574 335.47204956 -137.72363281 334.8059082 C-139.25993589 333.80751451 -140.7918766 332.80238854 -142.3203125 331.79199219 C-145.22605304 329.87181812 -148.14354524 327.97033583 -151.0625 326.0703125 C-155.53342656 323.15697108 -159.99945064 320.23636619 -164.4609375 317.30859375 C-170.06917857 313.62937007 -175.68697999 309.96523799 -181.3125 306.3125 C-182.51144897 305.53386597 -182.51144897 305.53386597 -183.73461914 304.73950195 C-185.33001876 303.70352186 -186.9254773 302.66763249 -188.52099609 301.63183594 C-191.87534507 299.45344079 -195.22819555 297.27274648 -198.58056641 295.09130859 C-200.25749653 294.00135228 -201.93553191 292.91309428 -203.61474609 291.82666016 C-207.71160643 289.1743152 -211.78797999 286.4979384 -215.83203125 283.765625 C-216.99665894 282.98759521 -216.99665894 282.98759521 -218.18481445 282.19384766 C-219.64988053 281.21417304 -221.10848239 280.22473755 -222.55932617 279.22412109 C-225.93958432 276.76292662 -225.93958432 276.76292662 -229.91221619 276.30206299 C-232.08239297 277.11690323 -233.81512052 278.09884717 -235.74829102 279.37792969 C-236.49166718 279.86590027 -237.23504333 280.35387085 -238.00094604 280.85662842 C-238.80629791 281.39378479 -239.61164978 281.93094116 -240.44140625 282.484375 C-241.29638702 283.04844055 -242.1513678 283.6125061 -243.03225708 284.19366455 C-245.85865753 286.06090685 -248.67935011 287.9365845 -251.5 289.8125 C-253.4637347 291.11230233 -255.4276862 292.41177719 -257.3918457 293.7109375 C-267.66156612 300.51342809 -277.89571334 307.36771006 -288.1015625 314.265625 C-289.07606857 314.92415466 -290.05057465 315.58268433 -291.05461121 316.26116943 C-295.73666734 319.42710523 -300.41451402 322.59902805 -305.08618164 325.78027344 C-306.79051773 326.93686312 -308.49486296 328.09343934 -310.19921875 329.25 C-310.95373322 329.76653137 -311.70824768 330.28306274 -312.48562622 330.81524658 C-326.08989054 340.03221132 -326.08989054 340.03221132 -331.75 340.125 C-335.30791274 338.93902909 -336.56981457 337.92063703 -338.9375 335.0625 C-339.79892159 332.50272083 -339.79892159 332.50272083 -340.31619263 329.55488586 C-340.62301468 327.87490257 -340.62301468 327.87490257 -340.93603516 326.16098022 C-341.14292969 324.93650177 -341.34982422 323.71202332 -341.56298828 322.45043945 C-341.7944455 321.15733353 -342.02590271 319.8642276 -342.26437378 318.53193665 C-342.89828288 314.98861997 -343.51256517 311.4421477 -344.12351084 307.89480996 C-344.7675455 304.17603498 -345.42997791 300.46054172 -346.09054565 296.74467468 C-347.34019234 289.69930474 -348.57392146 282.65124734 -349.80167472 275.60203284 C-351.46584202 266.05138561 -353.15191518 256.50461412 -354.83781219 246.9577831 C-355.24390257 244.65816205 -355.64991782 242.35852776 -356.05587769 240.05888367 C-356.18765848 239.31247232 -356.31943928 238.56606098 -356.45521343 237.7970311 C-357.23460198 233.37957924 -358.01004913 228.96145818 -358.78178048 224.54266226 C-359.26380122 221.78329692 -359.7472567 219.0241838 -360.23082352 216.26508904 C-360.55867262 214.39086655 -360.88438835 212.51627127 -361.21002197 210.6416626 C-361.77058641 207.44557113 -362.3472219 204.25322455 -362.9375 201.0625 C-363.18264721 199.70722214 -363.18264721 199.70722214 -363.43274689 198.32456493 C-364.33914676 193.39514306 -364.33914676 193.39514306 -367.66113281 189.76245117 C-368.80936523 189.21564697 -369.95759766 188.66884277 -371.140625 188.10546875 C-372.07813095 187.64114944 -372.07813095 187.64114944 -373.03457642 187.16744995 C-375.07259553 186.16535087 -377.12875578 185.20868664 -379.1875 184.25 C-380.6178098 183.5543101 -382.04634956 182.85496993 -383.47314453 182.15209961 C-386.32035061 180.75090598 -389.17309065 179.36216763 -392.03027344 177.98144531 C-397.05456734 175.53541943 -401.93759554 172.85443375 -406.8125 170.125 C-415.92563606 165.08141065 -425.16756943 160.30891902 -434.4375 155.5625 C-444.5627791 150.37812273 -454.62843877 145.12177716 -464.578125 139.60522461 C-469.99152795 136.62100446 -475.45429677 133.7524116 -480.9609375 130.9453125 C-482.01016891 130.40938225 -482.01016891 130.40938225 -483.08059692 129.86262512 C-486.55133943 128.09123264 -490.02625078 126.32889213 -493.50830078 124.57983398 C-494.78692156 123.92979554 -496.06541067 123.27949801 -497.34375 122.62890625 C-499.03467773 121.77727905 -499.03467773 121.77727905 -500.75976562 120.90844727 C-509.35658721 115.91454991 -509.35658721 115.91454991 -510.6640625 111.74609375 C-510.63054687 111.00488281 -510.59703125 110.26367188 -510.5625 109.5 C-510.55476563 108.75621094 -510.54703125 108.01242188 -510.5390625 107.24609375 C-509.71066914 104.23913343 -508.29925941 103.07616194 -505.9375 101.0625 C-503.38909435 100.11413288 -503.38909435 100.11413288 -500.51811218 99.48762512 C-499.45154074 99.24833094 -498.38496929 99.00903675 -497.2860775 98.76249123 C-496.18104692 98.53149412 -495.07601635 98.30049702 -493.9375 98.0625 C-492.37650542 97.7225982 -492.37650542 97.7225982 -490.7839756 97.3758297 C-487.40908454 96.65080962 -484.02941874 95.95297799 -480.64770508 95.26049805 C-478.72181171 94.86293304 -478.72181171 94.86293304 -476.75701141 94.45733643 C-473.23252615 93.72982259 -469.70741197 93.00539956 -466.18218255 92.28150153 C-462.38255633 91.50065411 -458.58354794 90.71681171 -454.7844696 89.93330383 C-448.22088949 88.58004333 -441.65695419 87.2285177 -435.09277344 85.87817383 C-424.60947989 83.7215611 -414.12693814 81.56130833 -403.64453125 79.40039062 C-400.96116492 78.84724409 -398.27779743 78.29410317 -395.59442961 77.74096382 C-393.79510329 77.37005684 -391.9957779 76.99914531 -390.19645345 76.62822926 C-383.82192967 75.31420567 -377.44731171 74.00063959 -371.07266235 72.68722534 C-347.99822927 67.93281327 -324.92567989 63.16938762 -301.85546875 58.39453125 C-301.117625 58.24182195 -300.37978125 58.08911266 -299.6195786 57.93177581 C-290.75714222 56.09750994 -281.89480404 54.26276992 -273.03249544 52.42788678 C-259.00623673 49.52388406 -244.9797188 46.62113372 -230.953125 43.71875 C-230.21539817 43.56609688 -229.47767133 43.41344376 -228.71758914 43.25616479 C-183.03321993 33.80310845 -137.34396469 24.37369974 -91.65481329 14.94378948 C-89.2374511 14.44486291 -86.82009001 13.94593106 -84.40272903 13.4469986 C-70.60776015 10.59979646 -70.60776015 10.59979646 -64.21077752 9.27984285 C-62.84642465 8.99829004 -61.48208452 8.71667543 -60.11775756 8.43499708 C-56.85034409 7.76045218 -53.58272015 7.08697774 -50.31473923 6.41518402 C-44.48013942 5.21450113 -38.64778739 4.00526687 -32.82238317 2.76076746 C-30.80439506 2.32998383 -28.7858359 1.90198308 -26.76708603 1.47478485 C-24.26089538 0.94338988 -21.75585424 0.40653211 -19.2522316 -0.13683319 C-4.82542495 -3.18272709 -4.82542495 -3.18272709 0 0 Z M-79.93255615 30.89274597 C-80.9697196 31.10326284 -82.00688305 31.31377972 -83.07547569 31.53067589 C-84.78946776 31.89097106 -84.78946776 31.89097106 -86.53808594 32.25854492 C-87.74866983 32.50664728 -88.95925373 32.75474964 -90.20652199 33.01037025 C-93.56917378 33.70117152 -96.93024557 34.39893108 -100.29083586 35.09964967 C-103.89762817 35.849969 -107.50624729 36.59140193 -111.11465454 37.33390808 C-118.17217377 38.78760746 -125.22795832 40.24956493 -132.28322065 41.71417373 C-140.5571714 43.43138058 -148.83293696 45.13976266 -157.10878444 46.84780073 C-175.91857716 50.73032306 -194.72537713 54.62723087 -213.53159201 58.52704024 C-221.3547655 60.14923108 -229.17829072 61.7697216 -237.00189269 63.38984454 C-260.29678745 68.21383031 -283.59141663 73.03907317 -306.88256836 77.88110352 C-312.36049003 79.01981092 -317.83843861 80.15838879 -323.31640625 81.296875 C-323.98806061 81.43647479 -324.65971496 81.57607458 -325.35172248 81.71990466 C-344.8098601 85.76395217 -364.27324 89.78175468 -383.74176359 93.77550209 C-388.62016705 94.7763072 -393.4983139 95.7783544 -398.37628174 96.78128052 C-399.0515977 96.92011929 -399.72691365 97.05895807 -400.42269373 97.20200408 C-403.11667853 97.75588097 -405.81065761 98.30978566 -408.50460625 98.86383843 C-416.90462443 100.59136828 -425.30598609 102.31217704 -433.70871258 104.02648926 C-438.4138449 104.98800901 -443.11769432 105.95568759 -447.82119942 106.92513275 C-449.99709789 107.37221837 -452.1735481 107.816628 -454.35056877 108.25821686 C-457.30329978 108.85744847 -460.25399164 109.46585054 -463.2043457 110.07666016 C-464.07009909 110.24997046 -464.93585247 110.42328075 -465.82784081 110.60184288 C-470.32357444 111.44011243 -470.32357444 111.44011243 -473.9375 114.0625 C-473.17421387 114.45405273 -472.41092773 114.84560547 -471.62451172 115.24902344 C-446.01157995 128.40295901 -446.01157995 128.40295901 -434.1875 134.9375 C-424.32368852 140.38437259 -414.31525871 145.5297939 -404.28646851 150.66363525 C-394.43268489 155.7104721 -384.64377594 160.85045196 -374.9609375 166.22070312 C-372.62633943 167.51368199 -370.28234453 168.78822401 -367.9375 170.0625 C-367.07882324 170.54783203 -366.22014648 171.03316406 -365.33544922 171.53320312 C-364.47064941 172.00177734 -363.60584961 172.47035156 -362.71484375 172.953125 C-361.55650024 173.59556152 -361.55650024 173.59556152 -360.37475586 174.25097656 C-355.31690954 175.93506763 -351.14084098 173.89286014 -346.55909729 171.61265564 C-345.5804496 171.11023094 -345.5804496 171.11023094 -344.58203125 170.59765625 C-343.88726181 170.24880875 -343.19249237 169.89996124 -342.47666931 169.5405426 C-340.23036194 168.40991734 -337.99015506 167.26775962 -335.75 166.125 C-334.19786086 165.34044924 -332.64545071 164.55643444 -331.09277344 163.77294922 C-322.52391463 159.44000408 -313.9887057 155.04592439 -305.51489258 150.52954102 C-298.78158382 146.94744211 -291.95671906 143.55814906 -285.12597656 140.16650391 C-279.18686357 137.2094552 -273.29659619 134.17483609 -267.4375 131.0625 C-259.73022843 126.96841814 -251.9453158 123.04899547 -244.12890625 119.16796875 C-238.1888201 116.21042235 -232.29756164 113.17534893 -226.4375 110.0625 C-218.73022843 105.96841814 -210.9453158 102.04899547 -203.12890625 98.16796875 C-197.1888201 95.21042235 -191.29756164 92.17534893 -185.4375 89.0625 C-177.73022843 84.96841814 -169.9453158 81.04899547 -162.12890625 77.16796875 C-156.1888201 74.21042235 -150.29756164 71.17534893 -144.4375 68.0625 C-136.73022843 63.96841814 -128.9453158 60.04899547 -121.12890625 56.16796875 C-114.41970576 52.82748323 -107.78122353 49.37026339 -101.1628418 45.85400391 C-91.51130969 40.74587106 -81.72201713 35.90956931 -71.9375 31.0625 C-75.28934953 29.94521682 -76.5347561 30.19021177 -79.93255615 30.89274597 Z M-26.9375 33.0625 C-27.41356689 33.41328613 -27.88963379 33.76407227 -28.38012695 34.12548828 C-29.05519287 34.62290527 -29.73025879 35.12032227 -30.42578125 35.6328125 C-31.18511963 36.19234619 -31.94445801 36.75187988 -32.72680664 37.32836914 C-34.43294257 38.58547849 -36.13916228 39.84247412 -37.84545898 41.09936523 C-42.16451676 44.2811014 -46.48249788 47.46426287 -50.796875 50.65234375 C-58.54290834 56.37328082 -66.30733833 62.06474216 -74.125 67.6875 C-80.44171695 72.23091138 -86.68930287 76.85533587 -92.89916992 81.54345703 C-98.61576615 85.8480335 -104.41507783 90.03188612 -110.2265625 94.20703125 C-115.17417566 97.76897268 -120.07208773 101.38921066 -124.9375 105.0625 C-131.30325523 109.86851839 -137.74888962 114.5532765 -144.2265625 119.20703125 C-149.17417566 122.76897268 -154.07208773 126.38921066 -158.9375 130.0625 C-165.30325523 134.86851839 -171.74888962 139.5532765 -178.2265625 144.20703125 C-183.17417566 147.76897268 -188.07208773 151.38921066 -192.9375 155.0625 C-199.30325523 159.86851839 -205.74888962 164.5532765 -212.2265625 169.20703125 C-217.17417566 172.76897268 -222.07208773 176.38921066 -226.9375 180.0625 C-232.55315516 184.30220778 -238.22300192 188.45701526 -243.9375 192.5625 C-250.46907582 197.25516335 -256.93368687 202.02649518 -263.35546875 206.86816406 C-268.83632943 210.99830451 -274.3688692 215.05119815 -279.9375 219.0625 C-277.18142784 221.98667866 -274.42995835 224.19091156 -271.02734375 226.3203125 C-270.05079834 226.93696777 -269.07425293 227.55362305 -268.06811523 228.18896484 C-266.48752319 229.17823975 -266.48752319 229.17823975 -264.875 230.1875 C-262.61311314 231.61754482 -260.35232505 233.04912434 -258.09375 234.484375 C-257.21746193 235.04087234 -257.21746193 235.04087234 -256.32347107 235.60861206 C-249.77234979 239.78269572 -243.32401355 244.10806133 -236.875 248.4375 C-229.3441487 253.48770722 -221.79512519 258.48351008 -214.07104492 263.23461914 C-207.70259737 267.16765672 -201.44686846 271.27134625 -195.1875 275.375 C-194.6257608 275.74323883 -194.06402161 276.11147766 -193.48526001 276.49087524 C-190.6868152 278.32565649 -187.88875749 280.16102671 -185.09082031 281.99658203 C-180.58854637 284.94627559 -176.07683936 287.88131594 -171.5625 290.8125 C-170.3700769 291.58678345 -170.3700769 291.58678345 -169.15356445 292.37670898 C-167.56254018 293.40972985 -165.9714759 294.44268911 -164.38037109 295.47558594 C-161.80069676 297.15136878 -159.22246574 298.82935452 -156.64453125 300.5078125 C-148.10211145 306.06847389 -139.55889726 311.6246921 -130.9375 317.0625 C-129.2627683 314.55040245 -128.29988832 312.64415559 -127.26782227 309.86547852 C-126.94814987 309.01041718 -126.62847748 308.15535583 -126.29911804 307.27438354 C-125.95419815 306.33950104 -125.60927826 305.40461853 -125.25390625 304.44140625 C-124.88687088 303.45560577 -124.51983551 302.4698053 -124.14167786 301.45413208 C-122.92378512 298.17922495 -121.71177218 294.90217632 -120.5 291.625 C-119.64487573 289.32065196 -118.78956684 287.01637242 -117.93408203 284.7121582 C-111.20254952 266.56111192 -104.55228988 248.38047385 -97.92163086 230.19238281 C-92.83494078 216.24092948 -87.716978 202.30154977 -82.5625 188.375 C-82.22035461 187.45050049 -81.87820923 186.52600098 -81.5256958 185.57348633 C-81.18157654 184.64366943 -80.83745728 183.71385254 -80.48291016 182.75585938 C-79.77766168 180.85026323 -79.07242087 178.94466424 -78.3671875 177.0390625 C-78.01302765 176.08215515 -77.6588678 175.1252478 -77.29397583 174.13934326 C-72.74596963 161.84751021 -68.21723196 149.54857623 -63.6875 137.25 C-62.80802889 134.86246568 -61.92855297 132.47493313 -61.04907227 130.08740234 C-57.14035734 119.47588346 -53.23248281 108.86405536 -49.32551003 98.25189495 C-47.40896237 93.04619562 -45.49209992 87.84061227 -43.57504845 82.63509846 C-42.00428586 78.36979024 -40.43421144 74.10422908 -38.86425781 69.83862305 C-38.44749786 68.70709305 -38.03073792 67.57556305 -37.60134888 66.40974426 C-36.80024454 64.23411111 -35.99998176 62.05816787 -35.20065308 59.88188171 C-33.48987882 55.23194747 -31.76518953 50.58965976 -29.97607422 45.96923828 C-29.68546616 45.21445694 -29.39485809 44.4596756 -29.09544373 43.68202209 C-28.34220201 41.73413046 -27.57961817 39.7898582 -26.81616211 37.84594727 C-25.60775479 35.14222389 -25.60775479 35.14222389 -26.9375 33.0625 Z M-108.9375 69.0625 C-109.2675 69.7225 -109.5975 70.3825 -109.9375 71.0625 C-108.9475 70.7325 -107.9575 70.4025 -106.9375 70.0625 C-107.5975 69.7325 -108.2575 69.4025 -108.9375 69.0625 Z M-119.77734375 74.8671875 C-120.56673843 75.26193268 -121.35613312 75.65667786 -122.16944885 76.06338501 C-124.74008915 77.35057135 -127.30762623 78.64381222 -129.875 79.9375 C-131.63535142 80.82109355 -133.39576809 81.70455711 -135.15625 82.58789062 C-144.33887443 87.20245852 -153.49592108 91.8568151 -162.56225586 96.69677734 C-169.22563361 100.2471605 -175.98349541 103.59924837 -182.74560547 106.95678711 C-189.51587852 110.32764287 -196.21508016 113.81657104 -202.89453125 117.36328125 C-209.36480192 120.78808114 -215.90420885 124.0614571 -222.46191406 127.31494141 C-228.12188493 130.13173856 -233.72882035 133.03513158 -239.3125 136 C-246.13824378 139.62368367 -253.01579627 143.12575297 -259.9375 146.5625 C-266.81754321 149.97859518 -273.65371429 153.45897134 -280.4375 157.0625 C-287.22129245 160.66603224 -294.05756823 164.14617135 -300.9375 167.5625 C-311.02204528 172.57348155 -321.00072326 177.76543503 -330.9375 183.0625 C-331.55054993 183.38929749 -332.16359985 183.71609497 -332.79522705 184.05279541 C-337.17645489 186.38848267 -341.55712362 188.72521635 -345.9375 191.0625 C-342.47345151 212.57736572 -338.75754124 234.04857273 -334.93228149 255.50186157 C-334.43406734 258.29712213 -333.93963011 261.09301131 -333.44833374 263.88949585 C-332.75083917 267.8577033 -332.04015828 271.82343778 -331.328125 275.7890625 C-331.01120445 277.60391396 -331.01120445 277.60391396 -330.68788147 279.45542908 C-330.4869841 280.56149002 -330.28608673 281.66755096 -330.07910156 282.80712891 C-329.9062262 283.77776276 -329.73335083 284.74839661 -329.55523682 285.7484436 C-329.09818034 288.23569135 -329.09818034 288.23569135 -326.9375 290.0625 C-326.66045731 289.14652542 -326.38341461 288.23055084 -326.09797668 287.28681946 C-323.48190442 278.64489998 -320.84914872 270.00821854 -318.20007801 261.37635517 C-316.83877315 256.93870651 -315.48335907 252.49943613 -314.14135742 248.0559082 C-312.84543417 243.76573506 -311.5341051 239.48055112 -310.21207237 235.19835472 C-309.71101853 233.56582209 -309.21548914 231.93158309 -308.72565651 230.29564857 C-308.03724978 228.00000144 -307.3292387 225.7112721 -306.61645508 223.4230957 C-306.41936447 222.74911743 -306.22227386 222.07513916 -306.01921082 221.3807373 C-304.06236791 215.23363082 -300.21103412 211.77938093 -295.07421875 208.15234375 C-294.36072266 207.64380859 -293.64722656 207.13527344 -292.91210938 206.61132812 C-292.15736328 206.07958984 -291.40261719 205.54785156 -290.625 205 C-289.00301627 203.8436953 -287.38193953 202.68611741 -285.76171875 201.52734375 C-284.95009277 200.94710449 -284.1384668 200.36686523 -283.30224609 199.76904297 C-279.8101887 197.24896439 -276.37187771 194.660354 -272.9375 192.0625 C-266.63807275 187.30740301 -260.26450255 182.66478674 -253.85717773 178.05639648 C-245.96758877 172.37693685 -238.14681251 166.60575703 -230.32861328 160.82861328 C-226.36758838 157.90293897 -222.40234283 154.98299694 -218.4375 152.0625 C-216.85414621 150.8958611 -215.27081288 149.72919442 -213.6875 148.5625 C-147.1875 99.5625 -147.1875 99.5625 -144.80883789 97.81005859 C-143.23738373 96.6519747 -141.66625334 95.49345133 -140.09545898 94.33447266 C-135.95802401 91.28266828 -131.81400453 88.24037282 -127.66015625 85.2109375 C-126.36464844 84.26347656 -126.36464844 84.26347656 -125.04296875 83.296875 C-123.39008636 82.08831584 -121.73524205 80.88243374 -120.078125 79.6796875 C-116.43430207 77.01132666 -113.0001471 74.41099416 -109.9375 71.0625 C-113.50949472 71.0625 -116.63529602 73.28140496 -119.77734375 74.8671875 Z M-290.9375 235.0625 C-294.27567787 242.90574623 -296.84817325 250.90059881 -299.30078125 259.05859375 C-299.70088131 260.38237255 -300.10112713 261.70610731 -300.50151062 263.02980042 C-301.33242204 265.78120088 -302.15966909 268.53367185 -302.98461914 271.28686523 C-304.04262642 274.81577723 -305.11287351 278.3408499 -306.18615437 281.86514187 C-307.01307957 284.58707318 -307.83209272 287.31133691 -308.64885521 290.03633308 C-309.04039402 291.33814589 -309.43474519 292.63911629 -309.83196449 293.93920708 C-310.38361941 295.74790781 -310.92318518 297.56028251 -311.4621582 299.37280273 C-311.77208206 300.40187241 -312.08200592 301.43094208 -312.40132141 302.49119568 C-313.18352223 305.16314443 -313.18352223 305.16314443 -311.9375 308.0625 C-278.75686655 286.3319139 -278.75686655 286.3319139 -245.9375 264.0625 C-250.40109616 260.29605781 -255.21852549 257.20766392 -260.125 254.0625 C-265.50576482 250.59647602 -270.87633251 247.12088642 -276.18359375 243.54296875 C-277.00512939 242.98931641 -277.82666504 242.43566406 -278.6730957 241.86523438 C-280.2431722 240.80386459 -281.81080182 239.73886445 -283.37573242 238.66992188 C-284.07931885 238.19490234 -284.78290527 237.71988281 -285.5078125 237.23046875 C-286.12414551 236.81047607 -286.74047852 236.3904834 -287.37548828 235.95776367 C-288.92663618 234.89674567 -288.92663618 234.89674567 -290.9375 235.0625 Z " fill="#000000" transform="translate(509.9375,86.9375)"/>
</svg>
