<?xml version="1.0" encoding="UTF-8"?>
<svg version="1.1" xmlns="http://www.w3.org/2000/svg" width="512" height="512">
<path d="M0 0 C0.60779297 0.4935498 1.21558594 0.98709961 1.84179688 1.49560547 C14.16189494 11.59690253 25.12082293 22.48762072 35 35 C35.63035156 35.73992187 36.26070313 36.47984375 36.91015625 37.2421875 C58.50649727 62.87398444 70.59182562 94.27695976 80 126 C90.27743629 111.36416652 90.27743629 111.36416652 100.3125 96.5625 C101.18648438 95.24958984 101.18648438 95.24958984 102.078125 93.91015625 C103.15031311 92.28661937 104.2192151 90.66085443 105.27539062 89.02685547 C106.69074752 86.84196012 108.12560847 84.67077858 109.5625 82.5 C109.99796143 81.81623291 110.43342285 81.13246582 110.88208008 80.42797852 C114.70194261 74.71207383 118.63828974 71.9338084 125.375 70.0625 C131.51737785 69.95659693 136.20496232 71.51050065 140.9375 75.4375 C144.84371223 80.29067277 145.80799876 84.25943916 145.6875 90.47265625 C144.23206908 97.94000921 139.33791393 103.90146916 135 110 C133.9810556 111.45913622 132.96283175 112.91877586 131.9453125 114.37890625 C129.90949553 117.28564189 127.85710563 120.17972355 125.79296875 123.06640625 C122.86716446 127.16760872 120.0727153 131.34687434 117.296875 135.55078125 C112.9471814 142.11337146 108.4720621 148.59270492 104.03125 155.09375 C101.31621083 159.06839799 98.60837488 163.0478116 95.90625 167.03125 C95.24117432 168.0104541 94.57609863 168.9896582 93.89086914 169.99853516 C92.62555711 171.86179054 91.36163276 173.72598936 90.09936523 175.59130859 C78.58916474 192.52361686 78.58916474 192.52361686 69.6875 194.875 C60.67705225 195.18043891 53.8985192 190.2908882 46.8125 185.25 C44.86087678 183.89033832 42.90904808 182.53097153 40.95703125 181.171875 C39.47323975 180.13063477 39.47323975 180.13063477 37.95947266 179.06835938 C33.33515339 175.83644774 28.66679779 172.67010582 24 169.5 C22.17033847 168.25294808 20.34091204 167.00555114 18.51171875 165.7578125 C13.87307557 162.59506378 9.23385323 159.43316562 4.59448242 156.27148438 C1.84624764 154.39800585 -0.90112943 152.52327461 -3.6484375 150.6484375 C-7.19136257 148.23110912 -10.73856878 145.82025865 -14.2890625 143.4140625 C-15.9635563 142.27606319 -17.63803611 141.13804331 -19.3125 140 C-20.43144653 139.24468994 -20.43144653 139.24468994 -21.57299805 138.47412109 C-38.84307851 126.71667991 -38.84307851 126.71667991 -40.8125 118.6875 C-41.11622332 112.7142748 -40.11776909 108.69262177 -36.8125 103.6875 C-32.5919122 99.65449388 -28.94116027 98.2545784 -23.1875 97.5 C-12.22482403 98.0835645 -2.5128024 107.44781787 6.02099609 113.58984375 C9.4482945 116.0319947 12.96418285 118.33535381 16.4765625 120.65234375 C22.53657367 124.66817067 28.52096613 128.79775096 34.52416992 132.89770508 C35.9063269 133.84166138 35.9063269 133.84166138 37.31640625 134.8046875 C38.14599854 135.37171387 38.97559082 135.93874023 39.83032227 136.52294922 C41.54701476 137.69162139 43.27205213 138.84803475 45 140 C39.74529087 111.9979316 28.63603768 85.50322355 11 63 C10.00419922 61.69095703 10.00419922 61.69095703 8.98828125 60.35546875 C-4.42020201 43.08490715 -20.01221347 29.31095313 -38 17 C-38.57862793 16.60151855 -39.15725586 16.20303711 -39.75341797 15.79248047 C-62.36862822 0.43028625 -90.98254244 -8.7051881 -118 -12 C-118.89074219 -12.11214844 -119.78148437 -12.22429687 -120.69921875 -12.33984375 C-166.77565018 -17.13810266 -214.47133444 -5.43511888 -252 22 C-252.99386719 22.71027344 -253.98773438 23.42054687 -255.01171875 24.15234375 C-292.2685271 51.6939696 -317.07754495 91.33185945 -327.25 136.3125 C-327.40106201 136.98007324 -327.55212402 137.64764648 -327.70776367 138.33544922 C-330.45410846 151.20129231 -331.40825026 163.82547801 -331.375 176.9375 C-331.37445618 177.74848145 -331.37391235 178.55946289 -331.37335205 179.39501953 C-331.33177672 192.93061642 -330.31874806 205.82895065 -327 219 C-326.76974121 219.9168457 -326.53948242 220.83369141 -326.30224609 221.77832031 C-317.42748134 256.19407471 -300.67825744 286.41792103 -276 312 C-275.37609375 312.66386719 -274.7521875 313.32773437 -274.109375 314.01171875 C-269.46833206 318.83710218 -264.32247929 322.95140159 -259 327 C-257.97003906 327.78503906 -256.94007813 328.57007813 -255.87890625 329.37890625 C-237.22653011 343.28998995 -216.22805534 353.32658833 -194 360 C-192.73929688 360.3815625 -191.47859375 360.763125 -190.1796875 361.15625 C-141.68098944 374.52123569 -89.70934003 366.18494568 -46.234375 341.9140625 C-32.87936944 334.27366783 -20.72487385 325.03884703 -9.6484375 314.375 C-4.21081156 309.49878087 0.36251789 306.60904722 7.80859375 306.71875 C12.81159583 307.36084652 16.67470414 309.81420897 20.375 313.125 C23.4233726 318.5182746 24.78369773 324.32214823 23.3125 330.4375 C13.1766829 355.75471716 -29.49787124 375.52492358 -53.20581055 385.7421875 C-107.07948917 408.3180621 -169.85233909 409.72030122 -224.33496094 388.11035156 C-245.41838655 379.3262347 -265.36374783 368.57425256 -283 354 C-283.56138672 353.54012695 -284.12277344 353.08025391 -284.70117188 352.60644531 C-297.3361066 342.20410496 -309.03336866 331.02260192 -319 318 C-319.43022461 317.44086914 -319.86044922 316.88173828 -320.30371094 316.30566406 C-327.23279478 307.25212017 -333.38198199 297.91645504 -339 288 C-339.3412793 287.40783691 -339.68255859 286.81567383 -340.03417969 286.20556641 C-351.23112895 266.67787261 -358.50793555 245.20124214 -363.25 223.25 C-363.40114258 222.55511475 -363.55228516 221.86022949 -363.70800781 221.14428711 C-366.67148371 206.56271468 -367.37460652 192.20583788 -367.3125 177.375 C-367.30926727 175.98453461 -367.30926727 175.98453461 -367.30596924 174.565979 C-367.25481753 160.85111176 -366.89874709 147.45456199 -364 134 C-363.70198486 132.58509277 -363.70198486 132.58509277 -363.39794922 131.14160156 C-352.27108802 79.78301075 -324.62324355 32.54706405 -283 0 C-282.05125 -0.77730469 -281.1025 -1.55460937 -280.125 -2.35546875 C-250.27070214 -26.30745007 -213.51282426 -40.71301236 -176 -47 C-175.2565332 -47.12987305 -174.51306641 -47.25974609 -173.74707031 -47.39355469 C-113.06974102 -57.54911332 -47.34766256 -38.47314078 0 0 Z " fill="#000000" transform="translate(367,79)"/>
</svg>
